<svg width="66" height="26" viewBox="0 0 66 26" fill="none" xmlns="http://www.w3.org/2000/svg">
<path d="M10.5528 16.5352C10.5528 16.2305 10.5059 15.957 10.4122 15.7148C10.3262 15.4648 10.1622 15.2383 9.91998 15.0352C9.6778 14.8242 9.33795 14.6172 8.90045 14.4141C8.46295 14.2109 7.89655 14 7.20123 13.7812C6.4278 13.5312 5.69342 13.25 4.99811 12.9375C4.31061 12.625 3.70123 12.2617 3.16998 11.8477C2.64655 11.4258 2.23248 10.9375 1.9278 10.3828C1.63092 9.82812 1.48248 9.18359 1.48248 8.44922C1.48248 7.73828 1.63873 7.09375 1.95123 6.51562C2.26373 5.92969 2.70123 5.42969 3.26373 5.01562C3.82623 4.59375 4.4903 4.26953 5.25592 4.04297C6.02936 3.81641 6.87701 3.70312 7.79889 3.70312C9.0567 3.70312 10.1544 3.92969 11.0919 4.38281C12.0294 4.83594 12.7559 5.45703 13.2715 6.24609C13.795 7.03516 14.0567 7.9375 14.0567 8.95312H10.5645C10.5645 8.45312 10.459 8.01562 10.2481 7.64062C10.045 7.25781 9.73248 6.95703 9.31061 6.73828C8.89655 6.51953 8.37311 6.41016 7.7403 6.41016C7.13092 6.41016 6.62311 6.50391 6.21686 6.69141C5.81061 6.87109 5.50592 7.11719 5.3028 7.42969C5.09967 7.73438 4.99811 8.07812 4.99811 8.46094C4.99811 8.75 5.06842 9.01172 5.20905 9.24609C5.35748 9.48047 5.57623 9.69922 5.8653 9.90234C6.15436 10.1055 6.50983 10.2969 6.9317 10.4766C7.35358 10.6562 7.84186 10.832 8.39655 11.0039C9.32623 11.2852 10.1426 11.6016 10.8458 11.9531C11.5567 12.3047 12.1505 12.6992 12.627 13.1367C13.1036 13.5742 13.463 14.0703 13.7051 14.625C13.9473 15.1797 14.0684 15.8086 14.0684 16.5117C14.0684 17.2539 13.9239 17.918 13.6348 18.5039C13.3458 19.0898 12.9278 19.5859 12.3809 19.9922C11.834 20.3984 11.1817 20.707 10.4239 20.918C9.66608 21.1289 8.81842 21.2344 7.88092 21.2344C7.03717 21.2344 6.20514 21.125 5.38483 20.9062C4.56451 20.6797 3.81842 20.3398 3.14655 19.8867C2.48248 19.4336 1.95123 18.8555 1.5528 18.1523C1.15436 17.4492 0.955139 16.6172 0.955139 15.6562H4.48248C4.48248 16.1875 4.56451 16.6367 4.72858 17.0039C4.89264 17.3711 5.12311 17.668 5.41998 17.8945C5.72467 18.1211 6.08405 18.2852 6.49811 18.3867C6.91998 18.4883 7.38092 18.5391 7.88092 18.5391C8.4903 18.5391 8.9903 18.4531 9.38092 18.2812C9.77936 18.1094 10.0723 17.8711 10.2598 17.5664C10.4551 17.2617 10.5528 16.918 10.5528 16.5352ZM20.1973 3.9375V21H16.6934V3.9375H20.1973ZM37.0137 12.082V18.8438C36.7481 19.1641 36.338 19.5117 35.7833 19.8867C35.2286 20.2539 34.5137 20.5703 33.6387 20.8359C32.7637 21.1016 31.7051 21.2344 30.463 21.2344C29.3614 21.2344 28.3575 21.0547 27.4512 20.6953C26.545 20.3281 25.7637 19.793 25.1075 19.0898C24.459 18.3867 23.959 17.5273 23.6075 16.5117C23.2559 15.4883 23.0801 14.3203 23.0801 13.0078V11.9414C23.0801 10.6289 23.2481 9.46094 23.584 8.4375C23.9278 7.41406 24.4161 6.55078 25.0489 5.84766C25.6817 5.14453 26.4356 4.60937 27.3106 4.24219C28.1856 3.875 29.1583 3.69141 30.2286 3.69141C31.713 3.69141 32.9317 3.93359 33.8848 4.41797C34.838 4.89453 35.5645 5.55859 36.0645 6.41016C36.5723 7.25391 36.8848 8.22266 37.002 9.31641H33.5919C33.5059 8.73828 33.3419 8.23438 33.0997 7.80469C32.8575 7.375 32.5098 7.03906 32.0567 6.79688C31.6114 6.55469 31.0333 6.43359 30.3223 6.43359C29.7364 6.43359 29.213 6.55469 28.752 6.79688C28.2989 7.03125 27.9161 7.37891 27.6036 7.83984C27.2911 8.30078 27.0528 8.87109 26.8887 9.55078C26.7247 10.2305 26.6426 11.0195 26.6426 11.918V13.0078C26.6426 13.8984 26.7286 14.6875 26.9005 15.375C27.0723 16.0547 27.3262 16.6289 27.6622 17.0977C28.0059 17.5586 28.4278 17.9062 28.9278 18.1406C29.4278 18.375 30.0098 18.4922 30.6739 18.4922C31.2286 18.4922 31.6895 18.4453 32.0567 18.3516C32.4317 18.2578 32.7325 18.1445 32.959 18.0117C33.1934 17.8711 33.3731 17.7383 33.4981 17.6133V14.5898H30.2872V12.082H37.0137Z" fill="#EC0B43"/>
<path d="M50.359 18.2856L50.4331 17.8583C50.8625 15.3801 52.8084 13.4422 55.2884 13.0229L55.136 12.9791C52.6896 12.2752 50.8443 10.2592 50.359 7.76021C49.8145 10.2705 47.9429 12.2833 45.4787 13.0085L45.4297 13.0229C47.8651 13.4441 49.7864 15.3274 50.2561 17.7539L50.359 18.2856Z" fill="#EC0B43"/>
<path d="M61.7005 13.4307L61.707 12.7502L55.2777 12.6814C55.2916 12.9806 55.2878 13.1249 55.2712 13.3619L61.7005 13.4307Z" fill="#EC0B43"/>
<path d="M58.0345 21.8242L58.4892 21.343L53.9428 16.531C53.7548 16.7549 53.6567 16.8552 53.4881 17.0122L58.0345 21.8242Z" fill="#EC0B43"/>
<path d="M59.1697 5.60889L58.7564 5.08757L53.831 9.4619C54.0254 9.6796 54.1113 9.79176 54.2443 9.98321L59.1697 5.60889Z" fill="#EC0B43"/>
<path d="M41.9148 20.9805L42.3695 21.4617L46.9159 16.6496C46.7043 16.4507 46.6096 16.3469 46.4612 16.1684L41.9148 20.9805Z" fill="#EC0B43"/>
<path d="M41.8088 5.07227L41.3956 5.59358L46.3209 9.9679C46.4897 9.72749 46.5792 9.61853 46.7342 9.44659L41.8088 5.07227Z" fill="#EC0B43"/>
<path d="M50.702 1H50.059V7.80524C50.3415 7.78757 50.4779 7.79006 50.702 7.80524V1Z" fill="#EC0B43"/>
<path d="M50.702 25H50.059V18.1948C50.3415 18.2124 50.4779 18.2099 50.702 18.1948V25Z" fill="#EC0B43"/>
<path d="M45.4293 12.6816L45.4358 13.3621L39.0065 13.4309C39.0204 13.1317 39.0166 12.9874 39 12.7504L45.4293 12.6816Z" fill="#EC0B43"/>
</svg>
