<svg width="473" height="169" viewBox="0 0 473 169" fill="none" xmlns="http://www.w3.org/2000/svg">
<path d="M118.037 114.328C118.037 119.777 117.334 124.582 115.928 128.742C114.58 132.902 112.646 136.506 110.127 139.553C107.666 142.6 104.736 145.148 101.338 147.199C97.9395 149.25 94.2188 150.891 90.1758 152.121C86.1914 153.352 81.9434 154.23 77.4316 154.758C72.9785 155.285 68.4375 155.549 63.8086 155.549C57.7148 155.549 52.0898 155.08 46.9336 154.143C41.7773 153.264 36.9141 151.857 32.3438 149.924C27.832 147.932 23.4668 145.383 19.248 142.277C15.0879 139.172 10.9277 135.393 6.76758 130.939L24.6973 112.746C26.3379 116.789 28.5938 120.539 31.4648 123.996C34.3359 127.395 37.4707 130.324 40.8691 132.785C44.3262 135.246 47.9004 137.18 51.5918 138.586C55.2832 139.992 58.7695 140.695 62.0508 140.695C65.918 140.695 69.5508 140.432 72.9492 139.904C76.3477 139.318 79.3066 138.381 81.8262 137.092C84.3457 135.803 86.3086 134.104 87.7148 131.994C89.1797 129.826 89.9121 127.131 89.9121 123.908C89.9121 121.447 89.3555 119.338 88.2422 117.58C87.1289 115.822 85.6641 114.328 83.8477 113.098C82.0898 111.809 80.0684 110.725 77.7832 109.846C75.498 108.967 73.1543 108.234 70.752 107.648C68.4082 107.004 66.0938 106.447 63.8086 105.979C61.5234 105.451 59.502 104.924 57.7441 104.396C54.2871 103.4 50.6836 102.346 46.9336 101.232C43.1836 100.061 39.4922 98.7422 35.8594 97.2773C32.2266 95.8125 28.7695 94.1426 25.4883 92.2676C22.2656 90.334 19.4238 88.0781 16.9629 85.5C14.502 82.8633 12.5391 79.8457 11.0742 76.4473C9.60938 72.9902 8.87695 69.0352 8.87695 64.582C8.87695 59.25 9.52148 54.5332 10.8105 50.4316C12.1582 46.2715 14.0332 42.668 16.4355 39.6211C18.8379 36.5742 21.6797 34.0254 24.9609 31.9746C28.2422 29.8652 31.8457 28.1953 35.7715 26.9648C39.6973 25.6758 43.8574 24.7676 48.252 24.2402C52.7051 23.6543 57.2461 23.3613 61.875 23.3613C68.2031 23.3613 73.9453 23.9473 79.1016 25.1191C84.3164 26.291 89.1211 27.9609 93.5156 30.1289C97.9102 32.2969 101.924 34.9043 105.557 37.9512C109.248 40.9395 112.705 44.2793 115.928 47.9707L97.998 66.1641C96.5918 61.9453 94.6289 58.1367 92.1094 54.7383C89.6484 51.3398 86.8945 48.4395 83.8477 46.0371C80.8008 43.5762 77.6074 41.7012 74.2676 40.4121C70.9277 39.0645 67.7051 38.3906 64.5996 38.3906C60.5566 38.3906 56.8359 38.6836 53.4375 39.2695C50.0391 39.7969 47.1094 40.7051 44.6484 41.9941C42.2461 43.2246 40.3711 44.9238 39.0234 47.0918C37.6758 49.2012 37.002 51.8379 37.002 55.002C37.002 57.5215 37.5 59.6602 38.4961 61.418C39.4922 63.1758 40.8105 64.6699 42.4512 65.9004C44.1504 67.1309 46.0547 68.1562 48.1641 68.9766C50.2734 69.7383 52.4414 70.4121 54.668 70.998C56.9531 71.584 59.1797 72.1113 61.3477 72.5801C63.5742 72.9902 65.5957 73.459 67.4121 73.9863C70.9277 74.9824 74.6191 76.0371 78.4863 77.1504C82.3535 78.2637 86.1621 79.582 89.9121 81.1055C93.6621 82.5703 97.2363 84.2695 100.635 86.2031C104.033 88.1367 107.021 90.4512 109.6 93.1465C112.178 95.7832 114.229 98.8594 115.752 102.375C117.275 105.832 118.037 109.816 118.037 114.328ZM174.727 153H139.834V26.4375H174.727V153ZM318.428 57.8145L303.398 64.1426C302.227 60.334 300.645 56.8477 298.652 53.6836C296.719 50.5195 294.375 47.8242 291.621 45.5977C288.926 43.3125 285.85 41.5547 282.393 40.3242C278.936 39.0352 275.156 38.3906 271.055 38.3906C266.66 38.3906 262.617 39.123 258.926 40.5879C255.293 42.0527 252.012 44.0449 249.082 46.5645C246.211 49.0254 243.691 51.9258 241.523 55.2656C239.355 58.6055 237.539 62.1797 236.074 65.9883C234.668 69.7383 233.584 73.6348 232.822 77.6777C232.119 81.7207 231.768 85.6758 231.768 89.543C231.768 95.6953 232.471 101.818 233.877 107.912C235.342 114.006 237.627 119.484 240.732 124.348C243.896 129.211 247.969 133.166 252.949 136.213C257.93 139.201 263.965 140.695 271.055 140.695C274.922 140.695 277.939 139.846 280.107 138.146C282.275 136.389 283.359 133.342 283.359 129.006V90.1582H318.252V153H308.145L301.992 143.068C296.367 147.346 290.156 150.51 283.359 152.561C276.621 154.553 269.736 155.549 262.705 155.549C256.494 155.549 250.518 154.787 244.775 153.264C239.092 151.74 233.789 149.572 228.867 146.76C223.945 143.947 219.463 140.549 215.42 136.564C211.436 132.58 208.008 128.156 205.137 123.293C202.324 118.43 200.127 113.156 198.545 107.473C197.021 101.73 196.26 95.7539 196.26 89.543C196.26 83.332 197.021 77.3848 198.545 71.7012C200.127 65.959 202.324 60.6562 205.137 55.793C208.008 50.8711 211.436 46.418 215.42 42.4336C219.463 38.4492 223.945 35.0508 228.867 32.2383C233.789 29.4258 239.092 27.2578 244.775 25.7344C250.518 24.2109 256.494 23.4492 262.705 23.4492C268.682 23.4492 274.512 24.1523 280.195 25.5586C285.938 26.9648 291.27 29.1035 296.191 31.9746C301.113 34.7871 305.479 38.3613 309.287 42.6973C313.154 46.9746 316.201 52.0137 318.428 57.8145Z" fill="white"/>
<path d="M404.328 54.7954L404.538 55.9353C407.273 70.8493 419.112 82.4194 434.085 84.811L431.981 85.3831C417.948 89.1978 407.256 100.583 404.328 114.827C401.043 100.516 390.186 89.1528 376.04 85.2192L374.572 84.811C389.278 82.4083 400.973 71.1735 403.964 56.5753L404.328 54.7954Z" fill="white"/>
<path d="M472.793 82.4827L472.832 86.3638L434.021 86.7558C434.105 85.0495 434.082 84.2265 433.982 82.8747L472.793 82.4827Z" fill="white"/>
<path d="M450.663 34.6128L453.407 37.3573L425.962 64.8024C424.827 63.5252 424.235 62.9532 423.217 62.0579L450.663 34.6128Z" fill="white"/>
<path d="M457.515 127.097L455.02 130.07L425.288 105.122C426.461 103.88 426.979 103.24 427.782 102.148L457.515 127.097Z" fill="white"/>
<path d="M353.354 39.4272L356.098 36.6827L383.543 64.1278C382.266 65.2625 381.694 65.8546 380.799 66.8723L353.354 39.4272Z" fill="white"/>
<path d="M352.714 130.157L350.219 127.184L379.951 102.235C380.97 103.606 381.51 104.228 382.446 105.209L352.714 130.157Z" fill="white"/>
<path d="M406.398 153.382H402.517V114.568C404.223 114.669 405.046 114.655 406.398 114.568V153.382Z" fill="white"/>
<path d="M406.398 16.5H402.517V55.3132C404.223 55.2125 405.046 55.2266 406.398 55.3132V16.5Z" fill="white"/>
<path d="M374.57 86.7556L374.609 82.8745L335.798 82.4825C335.881 84.1888 335.859 85.0117 335.758 86.3636L374.57 86.7556Z" fill="white"/>
</svg>
